HIERARCHY
ROOT Hips
{
	OFFSET 0.000000 0.000000 0.000000
	CHANNELS 6 Xposition Yposition Zposition Xrotation Yrotation Zrotation
	JOINT LeftUpLeg_virtual
	{
		OFFSET 0.000000 0.000000 0.000000
		CHANNELS 3 Xrotation Yrotation Zrotation
		JOINT LeftUpLeg
		{
			OFFSET 11.394100 -6.187798 -0.413800
			CHANNELS 3 Xrotation Yrotation Zrotation
			JOINT LeftLeg
			{
				OFFSET 0.430247 -32.302673 3.732800
				CHANNELS 3 Xrotation Yrotation Zrotation
				JOINT LeftFoot
				{
					OFFSET -0.430247 -48.264931 -6.423300
					CHANNELS 3 Xrotation Yrotation Zrotation
					JOINT LeftToeBase
					{
						OFFSET 4.230900 -16.068199 23.438400
						CHANNELS 3 Xrotation Yrotation Zrotation
						JOINT LeftToe_End
						{
							OFFSET 4.510700 0.695400 19.974600
							CHANNELS 3 Xrotation Yrotation Zrotation
							End Site
							{
								OFFSET 0 0 0
							}
						}
					}
				}
			}
		}
	}
	JOINT RightUpLeg_virtual
	{
		OFFSET 0.000000 0.000000 0.000000
		CHANNELS 3 Xrotation Yrotation Zrotation
		JOINT RightUpLeg
		{
			OFFSET -11.333700 -6.187798 -0.413800
			CHANNELS 3 Xrotation Yrotation Zrotation
			JOINT RightLeg
			{
				OFFSET -0.430392 -32.302628 3.733000
				CHANNELS 3 Xrotation Yrotation Zrotation
				JOINT RightFoot
				{
					OFFSET 0.430392 -48.264973 -6.423500
					CHANNELS 3 Xrotation Yrotation Zrotation
					JOINT RightToeBase
					{
						OFFSET -4.230900 -16.068199 23.438400
						CHANNELS 3 Xrotation Yrotation Zrotation
						JOINT RightToe_End
						{
							OFFSET -4.510700 0.695400 19.974600
							CHANNELS 3 Xrotation Yrotation Zrotation
							End Site
							{
								OFFSET 0 0 0
							}
						}
					}
				}
			}
		}
	}
	JOINT Spine_virtual
	{
		OFFSET 0.000000 0.000000 0.000000
		CHANNELS 3 Xrotation Yrotation Zrotation
		JOINT Spine
		{
			OFFSET -0.002400 12.777504 0.315300
			CHANNELS 3 Xrotation Yrotation Zrotation
			JOINT Spine1
			{
				OFFSET -0.002067 5.816869 0.032633
				CHANNELS 3 Xrotation Yrotation Zrotation
				JOINT Spine1_split
				{
					OFFSET -0.002067 5.816869 0.032633
					CHANNELS 3 Xrotation Yrotation Zrotation
					JOINT Spine2
					{
						OFFSET -0.002067 5.816869 0.032633
						CHANNELS 3 Xrotation Yrotation Zrotation
						JOINT Neck_virtual
						{
							OFFSET 0.000000 0.000000 0.000000
							CHANNELS 3 Xrotation Yrotation Zrotation
							JOINT Neck
							{
								OFFSET -0.003700 21.199493 -0.826900
								CHANNELS 3 Xrotation Yrotation Zrotation
								JOINT Head
								{
									OFFSET 0.000000 20.442200 4.834800
									CHANNELS 3 Xrotation Yrotation Zrotation
									JOINT HeadTop_End
									{
										OFFSET 0.000000 34.668396 4.968400
										CHANNELS 3 Xrotation Yrotation Zrotation
										End Site
										{
											OFFSET 0 0 0
										}
									}
								}
							}
						}
						JOINT LeftShoulder_virtual
						{
							OFFSET 0.000000 0.000000 0.000000
							CHANNELS 3 Xrotation Yrotation Zrotation
							JOINT LeftShoulder
							{
								OFFSET 3.288150 8.794197 -1.372250
								CHANNELS 3 Xrotation Yrotation Zrotation
								JOINT LeftShoulder_split
								{
									OFFSET 3.288150 8.794197 -1.372250
									CHANNELS 3 Xrotation Yrotation Zrotation
									JOINT LeftArm
									{
										OFFSET 11.953299 -2.279007 -0.146200
										CHANNELS 3 Xrotation Yrotation Zrotation
										JOINT LeftForeArm
										{
											OFFSET 18.448900 0.000000 0.000000
											CHANNELS 3 Xrotation Yrotation Zrotation
											JOINT LeftHand
											{
												OFFSET 29.527798 0.000000 0.000000
												CHANNELS 3 Xrotation Yrotation Zrotation
												End Site
												{
													OFFSET 0 0 0
												}
											}
										}
									}
								}
							}
						}
						JOINT RightShoulder_virtual
						{
							OFFSET 0.000000 0.000000 0.000000
							CHANNELS 3 Xrotation Yrotation Zrotation
							JOINT RightShoulder
							{
								OFFSET -3.249400 8.794197 -1.372250
								CHANNELS 3 Xrotation Yrotation Zrotation
								JOINT RightShoulder_split
								{
									OFFSET -3.249400 8.794197 -1.372250
									CHANNELS 3 Xrotation Yrotation Zrotation
									JOINT RightArm
									{
										OFFSET -11.953299 -2.279007 -0.146200
										CHANNELS 3 Xrotation Yrotation Zrotation
										JOINT RightForeArm
										{
											OFFSET -18.448900 0.000000 0.000000
											CHANNELS 3 Xrotation Yrotation Zrotation
											JOINT RightHand
											{
												OFFSET -29.527802 0.000000 0.000000
												CHANNELS 3 Xrotation Yrotation Zrotation
												End Site
												{
													OFFSET 0 0 0
												}
											}
										}
									}
								}
							}
						}
					}
				}
			}
		}
	}
}
MOTION
Frames: 10
Frame Time: 0.03333333
-11.191775 84.749031 -5.715706 0.000000 0.000000 0.000000 0.891650 -24.561937 9.312819 -50.054922 22.451339 26.214411 38.375264 -21.126909 3.077743 12.482183 0.016543 -2.427613 0.913402 -8.468781 10.572715 0.000000 0.000000 0.000000 -0.515587 -24.484869 8.729390 -21.181713 -6.185118 -25.431636 50.421819 6.919739 -5.361099 -22.029028 -21.340340 31.926886 4.565107 6.213835 -33.500698 0.000000 0.000000 0.000000 -0.092024 -12.708486 9.482884 25.902278 -5.265701 5.052660 17.569282 -8.145701 -5.427326 0.243451 -0.839074 0.450334 0.000000 0.000000 0.000000 9.043713 -5.146126 -4.866465 -48.966692 49.337718 34.534304 -69.486397 -22.848584 -45.327949 0.000000 0.000000 0.000000 5.196767 -8.166254 -6.881001 10.870283 -20.730299 0.196542 8.498613 -5.562156 -3.169135 -28.438271 -29.105540 -12.713553 24.611569 -37.033511 11.324400 0.000000 0.000000 0.000000 4.921001 -8.035829 -3.853754 14.011651 11.197844 19.592971 27.335218 10.270081 -2.640286 -18.607500 -2.405619 41.714752 -29.542549 71.511411 13.452425 0.000000 0.000000 0.000000 
-10.913409 85.643837 -5.292755 0.000000 0.000000 0.000000 -0.606992 -22.115855 7.058358 -52.101643 22.821602 26.642483 38.792350 -20.662024 3.082261 14.129000 -0.147963 0.280829 -1.196512 -8.453526 10.070294 0.000000 0.000000 0.000000 -1.388225 -21.903923 6.841467 -17.328933 -8.626128 -23.650339 46.052089 5.876315 -5.320542 -21.908154 -21.270384 31.380952 3.486128 6.155983 -32.267361 0.000000 0.000000 0.000000 -1.126565 -10.490565 7.180349 24.642141 -4.547318 4.272440 17.596628 -5.736283 -4.533772 0.311487 -0.737985 0.422108 0.000000 0.000000 0.000000 9.787820 -2.929120 -3.861741 -49.422487 46.228243 34.317029 -72.455958 -23.785762 -46.654618 0.000000 0.000000 0.000000 5.519425 -5.861095 -5.325715 10.098032 -20.950506 2.561755 8.661179 -5.676012 -6.577710 -26.323850 -27.766802 -15.353816 17.631088 -34.133256 8.526760 0.000000 0.000000 0.000000 5.176947 -5.998253 -3.004050 13.349175 8.516818 19.906180 27.782069 10.788060 -1.396105 -19.672062 -4.981156 40.345938 -31.615433 74.900435 16.115990 0.000000 0.000000 0.000000 
-10.594528 86.417511 -5.346676 0.000000 0.000000 0.000000 -1.623080 -19.369254 5.106131 -54.210569 22.552537 27.231560 39.032349 -20.296833 3.043612 15.601522 -0.444086 2.349629 -2.393890 -8.240605 9.374826 0.000000 0.000000 0.000000 -1.780794 -18.701007 5.222264 -13.769310 -10.216682 -21.732427 41.777685 5.007477 -5.497522 -21.901046 -21.428236 30.911674 2.586261 6.218386 -30.772803 0.000000 0.000000 0.000000 -1.914049 -8.140444 5.072473 23.293677 -3.978388 3.888507 17.761316 -3.641888 -3.517188 0.348382 -0.617580 0.313859 0.000000 0.000000 0.000000 10.530031 -1.007491 -2.759972 -50.521335 43.443275 34.230449 -74.739290 -22.196807 -46.751791 0.000000 0.000000 0.000000 5.863495 -3.860095 -3.804331 9.206710 -19.977982 5.201744 8.429330 -6.587822 -9.367563 -24.481563 -25.263470 -19.684672 12.284511 -33.156013 7.032296 0.000000 0.000000 0.000000 5.420952 -4.243092 -2.056112 12.394537 5.816109 19.555337 24.748859 11.929488 -0.168583 -18.637966 -6.034049 39.126356 -35.929138 76.175461 21.484304 0.000000 0.000000 0.000000 
-10.154716 86.968033 -5.673401 0.000000 0.000000 0.000000 -2.166861 -16.634711 3.499320 -56.211760 21.751021 27.938322 39.456913 -20.030889 2.978965 16.616310 -0.906133 3.807926 -2.784373 -7.943485 8.867785 0.000000 0.000000 0.000000 -1.919556 -15.220312 3.849121 -11.074358 -11.039377 -20.103562 38.375110 4.528204 -5.851036 -21.593119 -21.531483 30.839342 1.424353 6.433768 -29.307614 0.000000 0.000000 0.000000 -2.280554 -5.798647 3.331294 21.859131 -3.607811 3.784083 17.832340 -1.967809 -2.617090 0.274000 -0.504208 0.250642 0.000000 0.000000 0.000000 10.995402 0.498377 -1.765716 -51.698269 41.557381 33.989760 -75.543190 -18.434976 -45.254767 0.000000 0.000000 0.000000 6.067248 -2.271853 -2.573466 8.146509 -17.914212 7.717815 8.055294 -7.835736 -11.151231 -22.531561 -21.413324 -25.218380 8.937563 -34.108988 6.581562 0.000000 0.000000 0.000000 5.557862 -2.877189 -1.161139 11.221667 3.227540 18.529012 19.230235 13.209173 1.449951 -16.011736 -5.199403 37.986387 -39.508816 74.758961 26.395326 0.000000 0.000000 0.000000 
-9.550594 87.221451 -6.125854 0.000000 0.000000 0.000000 -2.197383 -14.318117 2.285087 -58.100103 20.484203 28.756490 40.553142 -19.794564 2.887400 17.080469 -1.563009 4.689897 -2.527336 -7.631623 8.603936 0.000000 0.000000 0.000000 -1.918846 -12.155691 2.756726 -9.784231 -11.386277 -19.036074 36.229543 4.435682 -6.228137 -21.076955 -21.385732 31.028740 0.607623 6.570457 -28.097827 0.000000 0.000000 0.000000 -2.365034 -3.578640 2.078233 20.441803 -3.388321 3.801344 17.714241 -0.731325 -2.001339 0.190160 -0.488918 0.157080 0.000000 0.000000 0.000000 10.978618 1.579858 -1.036187 -52.488597 40.873409 33.491573 -74.836095 -13.311287 -42.258698 0.000000 0.000000 0.000000 6.005076 -1.129050 -1.833757 6.908448 -14.987001 10.086596 7.686154 -8.800746 -11.735874 -20.465209 -16.244405 -31.313296 7.252239 -36.420788 6.786414 0.000000 0.000000 0.000000 5.529259 -1.851427 -0.499563 9.932462 0.817849 16.929070 12.095968 13.626758 3.501425 -12.253515 -2.629693 36.568877 -41.185911 71.262184 29.510140 0.000000 0.000000 0.000000 
-8.872876 87.131927 -6.540928 0.000000 0.000000 0.000000 -1.989789 -12.603662 1.398519 -59.637332 18.839390 29.580791 42.377943 -19.570444 2.827829 17.000979 -2.347436 5.090928 -2.194360 -7.406534 8.701423 0.000000 0.000000 0.000000 -1.938910 -9.911659 1.940454 -10.044881 -11.514696 -18.619968 35.211780 4.728905 -6.509547 -20.634884 -20.764410 31.258091 0.752894 6.500551 -27.341025 0.000000 0.000000 0.000000 -2.192224 -1.868020 1.217496 19.053702 -3.243039 3.707297 17.331194 0.144244 -1.764907 0.030835 -0.660906 0.106210 0.000000 0.000000 0.000000 10.508160 2.317738 -0.654556 -52.735973 41.087884 32.791537 -72.822835 -7.820769 -38.167961 0.000000 0.000000 0.000000 5.671821 -0.335147 -1.622500 5.647959 -11.737108 12.387053 7.736867 -9.177525 -11.268658 -18.177418 -10.481383 -36.899561 6.649076 -39.224766 7.180987 0.000000 0.000000 0.000000 5.299524 -1.134645 -0.138734 8.625145 -1.256262 14.977823 6.535345 13.143755 4.535851 -8.186298 1.112868 34.655533 -41.360583 66.631350 31.112656 0.000000 0.000000 0.000000 
-8.135218 86.783577 -6.888264 0.000000 0.000000 0.000000 -1.667274 -11.642506 0.736557 -60.569803 16.974374 30.210617 44.596924 -19.208577 2.802958 16.346779 -2.997346 5.229983 -1.812991 -7.274023 8.913919 0.000000 0.000000 0.000000 -2.019214 -8.822537 1.343036 -11.717523 -11.455630 -18.882014 35.275321 5.370805 -6.618069 -20.077227 -19.508272 31.661793 1.603065 6.347788 -27.230634 0.000000 0.000000 0.000000 -1.945508 -0.976284 0.639328 17.723349 -3.069062 3.391290 16.681337 0.782384 -1.897508 -0.052309 -0.858541 0.144885 0.000000 0.000000 0.000000 9.684278 2.848422 -0.651291 -52.417307 41.830640 32.086910 -69.868764 -3.096856 -33.463569 0.000000 0.000000 0.000000 5.129478 0.216550 -1.856501 4.488996 -8.777894 14.664175 8.479922 -8.508811 -9.637578 -15.942312 -4.731761 -41.540387 6.743776 -42.327953 7.626176 0.000000 0.000000 0.000000 4.809596 -0.618370 -0.115165 7.429351 -2.828800 12.995599 3.074705 11.944630 4.628609 -4.478004 5.238546 32.630085 -40.344350 61.570296 31.462443 0.000000 0.000000 0.000000 
-7.399899 86.249466 -7.191372 0.000000 0.000000 0.000000 -1.340860 -11.247226 0.263813 -60.764949 14.937263 30.578487 46.820069 -18.698903 2.780310 15.248121 -3.358515 5.090008 -1.306717 -7.182948 9.027326 0.000000 0.000000 0.000000 -2.118390 -8.819729 0.929347 -14.460637 -11.085784 -19.657979 36.214220 6.327627 -6.568527 -19.012928 -17.631665 32.614471 2.520279 6.214388 -27.861887 0.000000 0.000000 0.000000 -1.771449 -0.896096 0.231580 16.476423 -2.770646 2.895086 15.807728 1.290522 -2.335672 -0.032384 -1.095914 0.186016 0.000000 0.000000 0.000000 8.621005 3.321950 -0.959683 -51.673851 42.543110 31.462959 -66.270655 0.257491 -28.650144 0.000000 0.000000 0.000000 4.398628 0.666671 -2.407910 3.524818 -6.447813 16.906503 9.791630 -7.806932 -7.178781 -14.141149 0.344121 -45.284796 7.349966 -45.341565 8.178741 0.000000 0.000000 0.000000 4.059874 -0.155691 -0.355927 6.402529 -3.651767 11.318630 1.592949 10.550346 3.728201 -1.788908 9.094869 31.283083 -37.572297 55.860152 29.884181 0.000000 0.000000 0.000000 
-6.682325 85.667107 -7.426479 0.000000 0.000000 0.000000 -1.174181 -11.261298 -0.064384 -60.099210 12.958408 30.666593 48.527306 -18.281090 2.810971 13.953028 -3.384560 4.553776 -0.743514 -7.112747 9.136973 0.000000 0.000000 0.000000 -2.285755 -9.360770 0.595063 -17.642850 -10.304342 -20.702139 37.744978 7.581694 -6.443136 -17.588424 -15.281426 34.213954 3.297813 6.111746 -29.198895 0.000000 0.000000 0.000000 -1.718550 -1.637495 -0.063703 15.355577 -2.324077 2.260065 14.724886 1.711021 -2.977707 0.017939 -1.315189 0.288180 0.000000 0.000000 0.000000 7.498620 3.802975 -1.427921 -50.737084 42.875580 31.026104 -62.383301 1.844244 -24.152867 0.000000 0.000000 0.000000 3.534998 1.102802 -3.127182 2.889404 -4.972688 18.990988 10.554468 -6.709665 -4.771237 -12.721064 4.450064 -48.486929 8.552358 -47.614731 9.091290 0.000000 0.000000 0.000000 3.071103 0.317981 -0.719056 5.550772 -3.713004 10.033655 1.376679 9.768534 2.338199 -0.527074 12.301686 31.489218 -33.361209 49.322244 26.626196 0.000000 0.000000 0.000000 
-5.965808 85.199936 -7.644199 0.000000 0.000000 0.000000 -1.127650 -11.562233 -0.197051 -58.741519 11.219252 30.484142 49.500129 -18.022170 2.850646 12.588924 -3.135157 3.779844 0.269286 -7.013004 9.201253 0.000000 0.000000 0.000000 -2.453411 -10.102888 0.362131 -20.744990 -9.153107 -21.777713 39.595191 8.895133 -6.320907 -16.423960 -12.871217 35.957107 3.978379 5.975468 -30.946088 0.000000 0.000000 0.000000 -1.895993 -2.817008 -0.175028 14.459094 -1.712115 1.573747 13.515481 2.043293 -3.707450 0.050361 -1.458248 0.382702 0.000000 0.000000 0.000000 6.435941 4.295737 -1.896155 -49.724266 42.781156 30.863456 -58.722831 2.046433 -20.271978 0.000000 0.000000 0.000000 2.547879 1.532890 -3.871026 2.625892 -4.274919 20.928529 10.287835 -4.986074 -3.481285 -11.764165 7.819732 -51.804895 10.789184 -48.711905 10.908214 0.000000 0.000000 0.000000 1.831911 0.792155 -1.051145 4.851402 -3.423725 9.045309 1.450686 9.099834 0.535286 -0.766901 14.756188 33.862811 -28.765796 42.173030 22.669893 0.000000 0.000000 0.000000 
